<svg width="357" height="356" viewBox="0 0 357 356" fill="none" xmlns="http://www.w3.org/2000/svg">
<g clip-path="url(#clip0_19_600)">
<path d="M108.519 147.055L112.112 176.674H314.946L318.539 147.055H108.519Z" fill="#93EAF6"/>
<path d="M279.399 61.9509L300.88 51.8049C300.999 52.099 301.125 52.3918 301.263 52.6824C305.066 60.6882 314.656 64.1036 322.683 60.3121C330.711 56.5205 334.137 46.9565 330.334 38.9514C328.132 34.3157 323.989 31.2237 319.333 30.1745C321.468 25.9171 321.694 20.7613 319.493 16.1257C315.69 8.11984 306.1 4.70377 298.072 8.49531C290.044 12.2875 286.619 21.8509 290.422 29.856C290.56 30.1466 290.707 30.4289 290.86 30.7071L267.675 41.6582" fill="#F9EED7"/>
<path d="M166.431 32.3133C163.395 33.3493 160.386 34.5619 157.417 35.9643C126.545 50.5457 108.488 81.1896 108.519 113.134H164.131L176.56 36.4775C173.275 34.8734 169.889 33.487 166.431 32.3133Z" fill="#D04E42"/>
<path d="M175.323 176.674H108.858H108.519L129.428 349.048H294.038L314.946 176.674H175.323Z" fill="#279FC9"/>
<path d="M260.297 216.004C259.844 216.004 259.383 215.962 258.937 215.872C258.491 215.782 258.052 215.65 257.634 215.476C257.209 215.302 256.804 215.087 256.428 214.836C256.044 214.579 255.689 214.287 255.368 213.967C255.047 213.647 254.754 213.293 254.503 212.91C254.252 212.535 254.036 212.132 253.862 211.714C253.688 211.29 253.555 210.852 253.464 210.414C253.374 209.962 253.325 209.503 253.325 209.051C253.325 208.599 253.374 208.14 253.464 207.695C253.555 207.25 253.688 206.812 253.862 206.395C254.036 205.971 254.252 205.568 254.503 205.192C254.754 204.81 255.047 204.455 255.368 204.135C255.689 203.816 256.044 203.524 256.428 203.273C256.804 203.024 257.209 202.807 257.634 202.634C258.052 202.46 258.492 202.328 258.937 202.237C259.837 202.056 260.764 202.056 261.664 202.237C262.103 202.328 262.543 202.46 262.967 202.634C263.386 202.807 263.79 203.023 264.167 203.273C264.551 203.524 264.907 203.816 265.227 204.135C266.524 205.429 267.27 207.222 267.27 209.051C267.27 209.503 267.228 209.962 267.138 210.414C267.048 210.852 266.915 211.29 266.741 211.714C266.567 212.132 266.351 212.535 266.1 212.91C265.842 213.293 265.549 213.647 265.228 213.967C264.907 214.287 264.552 214.579 264.167 214.836C263.791 215.087 263.387 215.302 262.968 215.476C262.543 215.65 262.104 215.782 261.664 215.872C261.211 215.962 260.751 216.004 260.297 216.004Z" fill="black"/>
<path d="M334.895 113.136H98.6582V147.057H334.895V113.136Z" fill="#F2995E"/>
<path d="M242.396 23.8332C235.328 21.1138 227.649 19.6189 219.618 19.6189C184.659 19.6189 156.319 47.8799 156.319 82.7401C156.319 93.7594 159.154 104.117 164.131 113.134H209.686C204.709 104.118 201.874 93.7601 201.874 82.7401C201.874 55.8871 218.692 32.9529 242.396 23.8332Z" fill="white"/>
<path d="M242.396 23.8332C218.692 32.9536 201.875 55.8871 201.875 82.7401C201.875 93.7594 204.71 104.117 209.687 113.134H275.105C280.083 104.118 282.917 93.7601 282.917 82.7401C282.917 55.8871 266.099 32.9529 242.396 23.8332Z" fill="#FF5F5F"/>
<path d="M334.897 106.181H285.848C288.508 98.6885 289.89 90.7432 289.89 82.7394C289.89 76.8585 289.16 71.1451 287.785 65.6834L298.247 60.7418C300.833 63.7755 304.182 66.0936 308.043 67.469C313.845 69.5361 320.104 69.2239 325.668 66.595C331.233 63.9667 335.44 59.3338 337.511 53.5495C339.582 47.7659 339.271 41.5241 336.635 35.9748C334.673 31.8439 331.597 28.4724 327.799 26.1737C328.423 21.7883 327.755 17.2799 325.793 13.1491C320.35 1.6917 306.576 -3.21372 295.084 2.2118C285.474 6.75149 280.459 17.1054 282.262 27.0748L269.278 33.2081C256.554 20.5229 238.989 12.6665 219.617 12.6665C202.883 12.6665 187.497 18.5294 175.415 28.3041C150.985 17.8202 123.517 18.2652 99.3458 29.6822C83.2076 37.3049 69.7273 49.3025 60.3651 64.3783C52.484 77.0705 47.8227 91.3988 46.7176 106.183H22.1034C18.2524 106.183 15.1307 109.296 15.1307 113.136V147.057C15.1307 150.896 18.2524 154.01 22.1034 154.01H32.2807L56.04 349.883C56.464 353.375 59.435 356.001 62.9625 356.001H294.038C297.565 356.001 300.536 353.375 300.96 349.883L324.719 154.01H334.897C338.747 154.01 341.869 150.896 341.869 147.057V113.134C341.87 109.295 338.748 106.181 334.897 106.181ZM293.845 36.992C295.581 36.1716 296.903 34.6718 297.493 32.848C298.085 31.0235 297.895 29.037 296.968 27.3571C296.883 27.2027 296.8 27.0463 296.721 26.8808C294.571 22.3536 296.515 16.9253 301.055 14.781C305.597 12.6366 311.039 14.5751 313.19 19.1023C314.395 21.6402 314.362 24.5418 313.096 27.0637C312.137 28.9744 312.113 31.2195 313.03 33.1504C313.947 35.0813 315.704 36.4851 317.794 36.9566C320.553 37.5789 322.826 39.3909 324.031 41.9287C325.073 44.1218 325.196 46.588 324.377 48.8735C323.559 51.159 321.896 52.9898 319.697 54.0286C317.499 55.0667 315.026 55.1918 312.733 54.3734C310.441 53.5571 308.605 51.8995 307.561 49.703C307.482 49.5369 307.411 49.3686 307.343 49.1996C306.624 47.4245 305.202 46.0241 303.414 45.3281C301.625 44.6321 299.628 44.7017 297.894 45.5214L283.024 52.5448C281.65 49.687 280.087 46.9364 278.352 44.3081L293.845 36.992ZM275.944 82.7401C275.944 90.8433 274.18 98.8693 270.815 106.181H168.42C165.055 98.87 163.292 90.8447 163.292 82.7401C163.292 51.7688 188.56 26.5721 219.618 26.5721C250.675 26.5721 275.944 51.7688 275.944 82.7401ZM105.317 42.2486C124.14 33.359 145.321 32.3049 164.707 39.0599C155.098 51.0471 149.347 66.2369 149.347 82.7408C149.347 90.7439 150.728 98.6885 153.389 106.182H60.7131C63.1619 78.7581 80.1173 54.1509 105.317 42.2486ZM308.766 169.72H108.859C105.008 169.72 101.886 172.833 101.886 176.673C101.886 180.514 105.008 183.626 108.859 183.626H307.079L287.858 342.094H69.1423L53.8485 216.006H231.29C235.141 216.006 238.263 212.892 238.263 209.053C238.263 205.213 235.141 202.1 231.29 202.1H52.1618L46.3285 154.01H310.673L308.766 169.72ZM327.925 140.103H29.0761V120.089H327.925V140.103Z" fill="black"/>
<path d="M158.601 268.015H133.275C133.291 267.743 133.301 267.469 133.301 267.193C133.301 259.573 127.107 253.396 119.466 253.396C111.825 253.396 105.631 259.573 105.631 267.193C105.631 271.604 107.71 275.529 110.942 278.055C107.71 280.581 105.631 284.506 105.631 288.918C105.631 296.537 111.825 302.714 119.466 302.714C127.107 302.714 133.301 296.538 133.301 288.918C133.301 288.642 133.291 288.367 133.275 288.095H158.601" fill="#F9EED7"/>
<path d="M187.488 278.055C187.488 257.46 200.846 239.986 219.39 233.749C214.681 232.166 209.643 231.294 204.399 231.294C178.5 231.294 157.506 252.229 157.506 278.055C157.506 303.881 178.5 324.817 204.399 324.817C209.643 324.817 214.681 323.945 219.39 322.361C200.847 316.123 187.488 298.65 187.488 278.055Z" fill="white"/>
<path d="M251.29 278.055C251.29 257.46 237.933 239.986 219.389 233.749C200.847 239.987 187.488 257.46 187.488 278.055C187.488 298.65 200.845 316.122 219.389 322.36C237.933 316.123 251.29 298.65 251.29 278.055Z" fill="#F2995E"/>
<path d="M204.398 224.341C180.649 224.341 160.441 239.746 153.295 261.062L139.348 261.063C136.719 252.605 128.801 246.444 119.467 246.444C113.909 246.444 108.683 248.601 104.753 252.521C100.822 256.44 98.6582 261.651 98.6589 267.193C98.6589 271.1 99.7375 274.836 101.727 278.056C99.7375 281.275 98.6589 285.011 98.6589 288.918C98.6589 294.461 100.823 299.671 104.753 303.591C108.683 307.51 113.908 309.668 119.467 309.668C128.801 309.668 136.719 303.507 139.348 295.049H153.295C160.441 316.364 180.65 331.77 204.398 331.77C234.1 331.77 258.263 307.674 258.263 278.056C258.263 248.437 234.1 224.341 204.398 224.341ZM133.275 281.141C131.354 281.141 129.519 281.931 128.202 283.324C126.884 284.717 126.202 286.59 126.314 288.501C126.322 288.639 126.328 288.778 126.328 288.918C126.328 292.691 123.25 295.761 119.466 295.761C117.633 295.761 115.909 295.05 114.613 293.756C113.317 292.464 112.603 290.746 112.603 288.918C112.603 286.803 113.565 284.839 115.243 283.528C116.929 282.211 117.915 280.193 117.915 278.056C117.915 275.919 116.929 273.902 115.243 272.583C113.566 271.272 112.603 269.307 112.603 267.193C112.603 265.365 113.317 263.646 114.613 262.354C115.909 261.061 117.633 260.349 119.466 260.349C123.25 260.349 126.328 263.419 126.328 267.193C126.328 267.332 126.322 267.471 126.314 267.61C126.202 269.521 126.885 271.394 128.202 272.786C129.52 274.179 131.354 274.969 133.275 274.969L150.62 274.968C150.561 275.99 150.532 277.019 150.532 278.055C150.532 279.091 150.561 280.12 150.62 281.141H133.275V281.141ZM204.398 317.863C182.387 317.863 164.478 300.005 164.478 278.055C164.478 256.106 182.386 238.247 204.398 238.247C226.41 238.247 244.318 256.105 244.318 278.055C244.318 300.004 226.41 317.863 204.398 317.863Z" fill="black"/>
</g>
<defs>
<clipPath id="clip0_19_600">
<rect width="357" height="356" fill="white"/>
</clipPath>
</defs>
</svg>
