<svg width="356" height="356" viewBox="0 0 356 356" fill="none" xmlns="http://www.w3.org/2000/svg">
<path d="M189.336 88.498C172.342 92.7338 157.536 102.56 147.003 115.911C163.765 119.59 178.519 128.688 189.336 141.264C200.153 128.688 214.906 119.59 231.668 115.911C221.135 102.56 206.329 92.7338 189.336 88.498Z" fill="#FFD15C"/>
<path d="M165.335 164.058H175.681C181.436 149.122 191.668 136.392 204.724 127.522C195.774 119.136 183.74 114.001 170.508 114.001C157.275 114.001 145.242 119.136 136.292 127.522C149.348 136.393 159.58 149.123 165.335 164.058Z" fill="#EECCB0"/>
<path d="M165.335 164.058H175.681C178.022 157.983 181.104 152.273 184.815 147.038C180.945 143.779 175.952 141.814 170.508 141.814C165.064 141.814 160.071 143.779 156.201 147.038C159.912 152.273 162.994 157.983 165.335 164.058Z" fill="#FFD15C"/>
<path d="M264.774 115.843L341.555 39.062L325.501 23.0072L232.846 115.662" fill="#FF8859"/>
<path d="M231.668 115.911C232.06 115.824 232.453 115.742 232.846 115.662L325.501 23.0072L309.447 6.95312L215.713 100.687" fill="white"/>
<path d="M82.5857 191.975C82.5857 204.675 84.1286 216.717 87.0267 228.063H322.13C325.028 216.717 326.571 204.675 326.571 191.975H82.5857Z" fill="#93EAF6"/>
<path d="M322.13 228.063H85.2885C96.0588 270.228 125.613 302.745 164.879 323.341V349.047H242.54V323.341C281.805 302.745 311.36 270.228 322.13 228.063Z" fill="#279FC9"/>
<path d="M113.324 116.9C80.3955 125.984 56.1403 156.198 56.1403 191.975H170.508C170.508 156.198 146.253 125.984 113.324 116.9Z" fill="#FFD15C"/>
<path d="M142.696 191.975C142.696 164.329 120.284 141.918 92.6386 141.918C64.993 141.918 42.5817 164.329 42.5817 191.975H142.696Z" fill="#EECCB0"/>
<path d="M114.883 191.975C114.883 179.71 104.904 169.731 92.6386 169.731C80.3733 169.731 70.3942 179.709 70.3942 191.975H114.883Z" fill="#FFD15C"/>
<path d="M269.005 116.885C236.047 125.949 211.763 156.178 211.763 191.976H326.248C326.248 156.177 301.964 125.949 269.005 116.885Z" fill="#FFD15C"/>
<path d="M298.434 191.975C298.434 164.329 276.023 141.918 248.378 141.918C220.732 141.918 198.321 164.329 198.321 191.975H298.434Z" fill="#EECCB0"/>
<path d="M270.623 191.975C270.623 179.71 260.643 169.731 248.378 169.731C236.112 169.731 226.134 179.709 226.134 191.975H270.623Z" fill="#FFD15C"/>
<path d="M215.116 330.28C214.664 330.28 214.205 330.232 213.753 330.141C213.315 330.051 212.877 329.919 212.453 329.745C212.036 329.571 211.632 329.356 211.257 329.105C210.874 328.855 210.52 328.563 210.2 328.243C209.88 327.923 209.588 327.562 209.331 327.186C209.08 326.804 208.864 326.401 208.69 325.983C208.517 325.566 208.384 325.128 208.294 324.683C208.204 324.238 208.162 323.779 208.162 323.327C208.162 321.492 208.906 319.705 210.199 318.404C210.519 318.085 210.874 317.8 211.256 317.542C211.631 317.292 212.035 317.076 212.452 316.903C212.876 316.729 213.314 316.597 213.752 316.506C214.649 316.325 215.574 316.325 216.471 316.506C216.916 316.597 217.354 316.729 217.771 316.903C218.195 317.076 218.599 317.292 218.974 317.542C219.357 317.8 219.711 318.085 220.031 318.404C221.324 319.705 222.068 321.492 222.068 323.327C222.068 323.779 222.02 324.238 221.929 324.683C221.839 325.128 221.707 325.566 221.533 325.983C221.359 326.401 221.143 326.804 220.893 327.186C220.643 327.562 220.351 327.923 220.031 328.243C219.711 328.563 219.357 328.855 218.974 329.105C218.599 329.356 218.195 329.571 217.771 329.745C217.354 329.919 216.916 330.051 216.471 330.141C216.027 330.232 215.568 330.28 215.116 330.28Z" fill="black"/>
<path d="M346.471 34.1447L314.363 2.03658C311.648 -0.678616 307.245 -0.678616 304.529 2.03658L214.842 91.7243C201.686 83.628 186.437 79.2357 170.508 79.2357C145.829 79.2357 122.782 89.7774 106.625 108.305C102.074 107.547 97.4014 107.153 92.6385 107.153C46.5991 107.153 9.00842 144.022 7.84377 189.787C7.61571 190.475 7.49194 191.211 7.49194 191.975C7.49194 204.964 9.05848 217.685 12.1491 229.783C17.6484 251.312 27.93 271.002 42.7081 288.306C55.8648 303.71 72.2728 316.881 91.5225 327.496V349.047C91.5225 352.887 94.6355 356 98.4757 356H242.54C246.38 356 249.493 352.887 249.493 349.047V327.496C268.742 316.881 285.151 303.71 298.308 288.306C313.086 271.002 323.368 251.312 328.867 229.783C331.957 217.684 333.524 204.964 333.524 191.975C333.524 191.21 333.4 190.474 333.172 189.786C332.27 154.364 309.545 124.27 277.971 112.478L346.471 43.9778C349.187 41.2626 349.187 36.8599 346.471 34.1447ZM276.739 185.022C273.611 172.269 262.082 162.778 248.377 162.778C234.673 162.778 223.144 172.268 220.016 185.022H205.834C209.167 164.548 226.976 148.871 248.377 148.871C269.779 148.871 287.587 164.548 290.921 185.022H276.739ZM261.995 185.022H234.76C237.296 180.076 242.448 176.684 248.377 176.684C254.307 176.684 259.459 180.076 261.995 185.022ZM319.454 198.928C319.093 206.488 318.144 213.911 316.616 221.11H24.4006C22.873 213.911 21.9238 206.488 21.563 198.928H319.454ZM121 185.022C117.872 172.269 106.343 162.778 92.6385 162.778C78.9339 162.778 67.4049 172.268 64.2774 185.022H50.0951C53.4285 164.548 71.2368 148.871 92.6378 148.871C114.039 148.871 131.848 164.548 135.181 185.022H121ZM106.256 185.022H79.0208C81.5566 180.076 86.7089 176.684 92.6378 176.684C98.5667 176.684 103.72 180.076 106.256 185.022ZM171.054 157.105H169.962C168.774 154.471 167.46 151.915 166.029 149.442C167.472 148.999 168.981 148.768 170.508 148.768C172.036 148.768 173.544 148.999 174.986 149.442C173.556 151.915 172.242 154.471 171.054 157.105ZM183.138 137.743C179.222 135.861 174.904 134.861 170.508 134.861C166.112 134.861 161.794 135.861 157.878 137.743C154.79 134.021 151.397 130.58 147.736 127.452C154.517 123.224 162.369 120.955 170.507 120.955C178.646 120.955 186.497 123.225 193.279 127.452C189.619 130.58 186.226 134.021 183.138 137.743ZM309.447 16.7862L315.668 23.0072L232.484 106.191C230.472 104.031 228.362 101.989 226.165 100.069L309.447 16.7862ZM170.508 93.1427C185.321 93.1427 199.433 97.6893 211.216 105.991C211.511 106.242 211.822 106.463 212.145 106.657C214.546 108.408 216.846 110.315 219.03 112.374C214.232 114.138 209.637 116.321 205.287 118.882C195.351 111.217 183.193 107.048 170.507 107.048C157.821 107.048 145.663 111.217 135.727 118.882C131.379 116.321 126.783 114.138 121.985 112.374C135.064 100.046 152.254 93.1427 170.508 93.1427ZM92.6385 121.059C107.312 121.059 120.959 125.539 132.284 133.203C132.317 133.227 132.351 133.25 132.384 133.273C133.503 134.033 134.596 134.822 135.663 135.637C135.689 135.658 135.716 135.678 135.742 135.698C135.869 135.795 135.995 135.893 136.121 135.99C141.585 140.243 150.547 151.087 150.606 151.167C153.866 155.785 156.589 160.806 158.683 166.141C158.699 166.183 158.716 166.224 158.732 166.266C161.039 172.177 162.575 178.47 163.216 185.021H149.227C145.786 156.853 121.721 134.964 92.6385 134.964C63.5564 134.964 39.4909 156.853 36.0505 185.021H22.0601C25.5659 149.17 55.8815 121.059 92.6385 121.059ZM239.311 317.184C237.022 318.385 235.587 320.757 235.587 323.341V342.094H105.429V330.278H185.939C189.779 330.278 192.892 327.165 192.892 323.324C192.892 319.484 189.779 316.371 185.939 316.371H100.175C64.1064 297.04 39.3831 269.066 28.1566 235.016H312.861C301.475 269.546 276.211 297.828 239.311 317.184ZM318.956 185.022H304.966C301.526 156.854 277.46 134.965 248.378 134.965C219.296 134.965 195.23 156.853 191.79 185.022H177.8C178.435 178.526 179.95 172.285 182.224 166.419C182.271 166.298 182.318 166.178 182.365 166.057C182.386 166.004 182.407 165.952 182.428 165.899C182.446 165.852 182.465 165.806 182.484 165.758C182.531 165.641 182.578 165.524 182.625 165.407C182.666 165.306 182.707 165.206 182.748 165.106C182.767 165.058 182.787 165.01 182.807 164.963C184.831 160.068 187.388 155.447 190.405 151.173C190.466 151.091 190.525 151.007 190.582 150.923C194.605 145.277 205.148 135.794 205.274 135.698C205.3 135.678 205.326 135.659 205.351 135.639C206.419 134.822 207.513 134.034 208.632 133.273C208.666 133.25 208.699 133.227 208.732 133.203C216.302 128.08 224.91 124.38 234.169 122.489C234.178 122.487 234.188 122.485 234.198 122.483C238.781 121.55 243.523 121.059 248.377 121.059C285.135 121.059 315.451 149.17 318.956 185.022ZM262.461 108.322C258.763 107.702 254.986 107.321 251.145 107.198L325.501 32.841L331.722 39.062L262.461 108.322Z" fill="black"/>
</svg>
