<svg width="356" height="356" viewBox="0 0 356 356" fill="none" xmlns="http://www.w3.org/2000/svg">
<path d="M134.289 196.921H146.814V6.95312H129.675V158.158" fill="#F2995E"/>
<path d="M240.37 158.158V30.0696H224.777V196.921H236.173" fill="#FFD15C"/>
<path d="M284.825 173.789H235.547L231.977 196.92H125.093L142.592 349.048H264.666L284.825 173.789Z" fill="#FF5F5F"/>
<path d="M240.975 349.048H115.025L119.544 309.75H236.455L240.975 349.048Z" fill="#F9EED7"/>
<path d="M97.1418 182.531L103.123 221.295H252.876L258.857 182.531H283.822L286.626 158.158H237.956L231.975 196.921H124.025L118.043 158.158H69.3737L72.1772 182.531H97.1418Z" fill="#F9EED7"/>
<path d="M115.627 74.4126H100.034V158.156H115.627V74.4126Z" fill="#FFD15C"/>
<path d="M177.997 37.5609H162.404V196.92H177.997V37.5609Z" fill="#FFD15C"/>
<path d="M209.188 82.5409H193.596V196.92H209.188V82.5409Z" fill="#F2995E"/>
<path d="M271.555 63.7187H254.137V158.156H271.555V63.7187Z" fill="#F2995E"/>
<path d="M249.561 260.736C249.109 260.736 248.65 260.694 248.205 260.603C247.76 260.513 247.322 260.381 246.905 260.207C246.481 260.033 246.078 259.818 245.702 259.567C245.32 259.31 244.965 259.018 244.645 258.698C244.325 258.378 244.033 258.024 243.783 257.641C243.533 257.266 243.317 256.863 243.143 256.445C242.97 256.021 242.837 255.583 242.747 255.145C242.657 254.693 242.608 254.234 242.608 253.782C242.608 253.33 242.657 252.872 242.747 252.427C242.837 251.982 242.97 251.543 243.143 251.126C243.317 250.702 243.533 250.299 243.783 249.923C244.033 249.541 244.325 249.186 244.645 248.867C244.965 248.547 245.32 248.255 245.702 248.004C246.078 247.754 246.481 247.538 246.905 247.365C247.322 247.191 247.76 247.059 248.205 246.968C250.465 246.509 252.864 247.253 254.477 248.867C254.797 249.186 255.089 249.541 255.339 249.923C255.59 250.299 255.805 250.702 255.979 251.126C256.153 251.543 256.292 251.982 256.375 252.427C256.466 252.872 256.514 253.33 256.514 253.782C256.514 254.234 256.466 254.693 256.375 255.145C256.292 255.583 256.153 256.021 255.979 256.445C255.805 256.863 255.59 257.266 255.339 257.641C255.089 258.024 254.797 258.378 254.477 258.698C253.184 259.999 251.39 260.736 249.561 260.736Z" fill="black"/>
<path d="M291.815 153.53C290.496 152.051 288.608 151.205 286.626 151.205H278.508V63.718C278.508 59.8778 275.396 56.7648 271.555 56.7648H247.323V30.0696C247.323 26.2294 244.21 23.1164 240.37 23.1164H209.185C205.345 23.1164 202.232 26.2294 202.232 30.0696V75.5877H184.953V37.5644C184.953 33.7242 181.84 30.6113 178 30.6113H153.768V6.95315C153.768 3.11293 150.655 0 146.814 0H115.629C111.789 0 108.676 3.11293 108.676 6.95315V67.4623H84.4433C80.603 67.4623 77.4901 70.5752 77.4901 74.4154V151.205H69.3737C67.3913 151.205 65.5029 152.051 64.1839 153.53C62.8648 155.01 62.2398 156.983 62.4664 158.952L84.4266 349.842C84.8305 353.351 87.8016 356 91.3345 356H264.667C268.2 356 271.171 353.351 271.574 349.842L293.534 158.952C293.76 156.983 293.134 155.01 291.815 153.53ZM247.324 70.6711H264.603V151.205H247.324V70.6711ZM216.138 37.0228H233.417V152.891C232.201 153.94 231.345 155.409 231.085 157.098L226.012 189.968H216.138V37.0228ZM184.953 89.494H202.232V189.967H184.953V89.494ZM153.768 44.5176H171.047V189.967H153.768V44.5176ZM122.582 13.9063H139.861V189.967H129.987L124.915 157.097C124.654 155.409 123.799 153.939 122.582 152.891V13.9063ZM91.3971 81.3686H108.676V151.205H91.3971V81.3686ZM122.823 342.094L125.744 316.703H230.256L233.176 342.094H122.823ZM258.467 342.094H247.174L243.363 308.956C242.959 305.446 239.988 302.797 236.455 302.797H119.544C116.011 302.797 113.04 305.446 112.636 308.956L108.825 342.094H97.5326L88.1743 260.738H221.705C225.546 260.738 228.659 257.625 228.659 253.785C228.659 249.945 225.546 246.832 221.705 246.832H86.5751L79.9786 189.485H91.1795L96.2511 222.356C96.774 225.747 99.6922 228.248 103.123 228.248H252.876C256.307 228.248 259.225 225.746 259.748 222.356L264.82 189.485H276.021L258.467 342.094ZM277.621 175.578H258.858C255.427 175.578 252.509 178.081 251.986 181.471L246.914 214.342H109.085L104.014 181.471C103.49 178.08 100.572 175.578 97.1418 175.578H78.3787L77.1751 165.112H112.078L117.151 197.981C117.446 199.895 118.506 201.527 119.991 202.585C120.004 202.595 120.018 202.604 120.032 202.614C120.06 202.634 120.089 202.653 120.116 202.673C120.139 202.688 120.161 202.702 120.184 202.718C120.203 202.73 120.222 202.743 120.241 202.755C120.271 202.775 120.301 202.794 120.331 202.812C120.342 202.819 120.353 202.826 120.364 202.833C120.399 202.855 120.436 202.877 120.472 202.899C120.477 202.902 120.482 202.905 120.488 202.908C121.22 203.342 122.038 203.645 122.912 203.785C122.915 203.786 122.919 203.786 122.923 203.787C122.966 203.794 123.008 203.8 123.051 203.806C123.065 203.808 123.077 203.809 123.09 203.811C123.128 203.816 123.165 203.821 123.203 203.825C123.222 203.827 123.241 203.83 123.261 203.832C123.294 203.836 123.327 203.839 123.361 203.843C123.385 203.845 123.408 203.847 123.432 203.849C123.462 203.852 123.493 203.854 123.523 203.857C123.551 203.859 123.578 203.86 123.606 203.862C123.634 203.863 123.662 203.865 123.69 203.866C123.724 203.868 123.759 203.869 123.794 203.871C123.814 203.871 123.835 203.872 123.855 203.873C123.912 203.874 123.969 203.875 124.026 203.875H231.977C232.034 203.875 232.091 203.874 232.148 203.873C232.168 203.872 232.189 203.871 232.209 203.871C232.244 203.869 232.278 203.869 232.313 203.866C232.341 203.865 232.369 203.864 232.397 203.862C232.424 203.86 232.452 203.858 232.479 203.857C232.51 203.855 232.541 203.852 232.571 203.849C232.595 203.847 232.618 203.845 232.641 203.843C232.675 203.839 232.709 203.836 232.742 203.832C232.762 203.83 232.78 203.828 232.8 203.825C232.837 203.821 232.875 203.816 232.913 203.811C232.925 203.809 232.938 203.808 232.951 203.806C232.994 203.8 233.037 203.793 233.079 203.787C233.084 203.786 233.087 203.786 233.091 203.785C233.965 203.645 234.783 203.341 235.515 202.908C235.521 202.906 235.525 202.902 235.531 202.899C235.567 202.877 235.603 202.855 235.639 202.833C235.65 202.826 235.661 202.819 235.672 202.812C235.702 202.794 235.732 202.774 235.762 202.755C235.781 202.743 235.8 202.73 235.819 202.718C235.841 202.702 235.864 202.688 235.886 202.673C235.915 202.653 235.943 202.634 235.971 202.614C235.984 202.604 235.998 202.595 236.012 202.585C237.497 201.527 238.556 199.896 238.852 197.981L243.925 165.112H278.828L277.621 175.578Z" fill="black"/>
</svg>
