<svg width="357" height="356" viewBox="0 0 357 356" fill="none" xmlns="http://www.w3.org/2000/svg">
<path d="M202.904 8.68445C119.733 20.4999 55.7812 91.7965 55.7812 178C55.7812 264.203 119.733 335.5 202.904 347.316C286.076 335.5 350.027 264.203 350.027 178C350.027 91.7965 286.076 20.4999 202.904 8.68445Z" fill="#FF8859"/>
<path d="M178.5 356C130.821 356 85.9959 337.485 52.281 303.865C18.5675 270.245 0 225.545 0 178C0 130.455 18.5675 85.755 52.281 52.1352C85.9959 18.5148 130.821 0 178.5 0C226.179 0 271.004 18.5148 304.719 52.1352C338.432 85.755 357 130.455 357 178C357 225.545 338.432 270.245 304.719 303.865C271.004 337.485 226.179 356 178.5 356ZM178.5 13.9062C87.7641 13.9062 13.9453 87.5183 13.9453 178C13.9453 268.482 87.7641 342.094 178.5 342.094C269.236 342.094 343.055 268.482 343.055 178C343.055 87.5183 269.236 13.9062 178.5 13.9062Z" fill="black"/>
<path d="M132.954 288.509C121.956 280.52 122.41 260.728 114.398 249.76C106.461 238.896 87.3974 233.268 83.1385 220.227C79.0246 207.63 90.9744 191.948 90.9744 178C90.9744 164.053 79.0246 148.37 83.1385 135.774C87.3967 122.732 106.461 117.104 114.398 106.24C122.409 95.2724 121.955 75.481 132.954 67.4912C143.849 59.5772 162.548 66.0561 175.626 61.8098C184.513 58.9236 192.706 49.9805 201.653 44.9276C194.338 39.3206 186.89 33.7484 178.501 33.7484C163.735 33.7484 151.883 51.0109 138.547 55.3413C124.742 59.8247 105.001 52.9842 93.4998 61.3391C81.889 69.7732 82.3687 90.666 73.9109 102.244C65.5325 113.713 45.4073 119.656 40.9114 133.422C36.5681 146.721 49.183 163.276 49.183 178C49.183 192.724 36.5681 209.28 40.9107 222.578C45.4067 236.345 65.5318 242.287 73.9102 253.756C82.368 265.334 81.889 286.227 93.4991 294.661C105.001 303.016 124.741 296.175 138.547 300.659C151.882 304.989 163.735 322.252 178.5 322.252C186.889 322.252 194.338 316.679 201.652 311.072C192.705 306.02 184.513 297.076 175.626 294.19C162.548 289.943 143.849 296.423 132.954 288.509Z" fill="white"/>
<path d="M316.089 133.422C311.593 119.655 291.468 113.713 283.09 102.244C275.256 91.5212 275.082 72.8145 265.876 63.409C265.141 62.6595 264.358 61.9614 263.5 61.3391C257.799 57.1971 250.071 56.7903 242.047 56.8863C233.884 56.9836 225.414 57.6018 218.453 55.3413C212.694 53.4716 207.211 49.1899 201.652 44.9276C192.705 49.9804 184.512 58.9236 175.625 61.8098C162.547 66.0568 143.848 59.5772 132.953 67.4912C121.955 75.4803 122.409 95.2717 114.397 106.24C106.461 117.104 87.3959 122.732 83.1377 135.774C79.0239 148.371 90.9736 164.053 90.9736 178C90.9736 191.947 79.0239 207.63 83.1377 220.227C87.3966 233.268 106.461 238.897 114.397 249.76C122.408 260.728 121.954 280.519 132.953 288.509C143.848 296.423 162.547 289.944 175.625 294.19C184.512 297.076 192.705 306.02 201.651 311.072C207.211 306.811 212.693 302.529 218.452 300.659C225.413 298.398 233.883 299.016 242.045 299.114C250.07 299.21 257.797 298.803 263.499 294.661C264.356 294.038 265.14 293.341 265.874 292.59C275.08 283.185 275.255 264.479 283.088 253.755C291.467 242.286 311.592 236.344 316.088 222.577C320.43 209.279 307.816 192.724 307.816 177.999C307.817 163.276 320.432 146.721 316.089 133.422Z" fill="#EECCB0"/>
<path d="M178.5 329.205C167.553 329.205 158.55 322.3 150.607 316.209C145.583 312.355 140.836 308.715 136.387 307.27C131.617 305.721 125.42 305.855 118.865 305.997C108.552 306.218 97.8856 306.45 89.3929 300.28C80.8228 294.055 77.6189 283.355 74.7936 273.915C72.9305 267.693 71.1706 261.815 68.2734 257.85C65.4356 253.965 60.418 250.532 55.107 246.896C46.9043 241.284 37.6077 234.922 34.2796 224.731C31.0799 214.932 34.5669 204.977 37.9396 195.352C40.1353 189.085 42.2096 183.165 42.2096 178.001C42.2096 172.837 40.1353 166.917 37.9396 160.649C34.5669 151.023 31.0799 141.07 34.2796 131.271C37.6077 121.08 46.9043 114.718 55.107 109.105C60.418 105.47 65.4356 102.037 68.2734 98.1517C71.1706 94.1856 72.9305 88.3082 74.7936 82.0858C77.6203 72.6455 80.8228 61.9461 89.3936 55.7203C97.8856 49.5521 108.552 49.7809 118.865 50.0048C125.422 50.1459 131.617 50.2801 136.387 48.731C140.836 47.2861 145.581 43.6462 150.607 39.7927C158.55 33.7004 167.553 26.7953 178.5 26.7953C189.447 26.7953 198.45 33.6997 206.393 39.7913C211.417 43.6448 216.163 47.2847 220.613 48.7289C225.383 50.2787 231.577 50.1459 238.136 50.0027C248.449 49.7802 259.114 49.5494 267.606 55.7189C276.177 61.9447 279.381 72.6442 282.206 82.0844C284.069 88.3068 285.829 94.1842 288.727 98.1496C291.564 102.034 296.582 105.468 301.893 109.102C310.096 114.715 319.392 121.077 322.72 131.267C325.92 141.067 322.433 151.021 319.06 160.646C316.865 166.914 314.79 172.834 314.79 177.998C314.79 183.162 316.865 189.082 319.06 195.349C322.433 204.975 325.92 214.929 322.72 224.728C319.392 234.919 310.096 241.281 301.893 246.894C296.582 250.529 291.564 253.961 288.727 257.847C285.829 261.813 284.069 267.69 282.206 273.913C279.38 283.353 276.177 294.052 267.606 300.278C259.114 306.447 248.448 306.216 238.135 305.994C231.574 305.852 225.382 305.718 220.613 307.268C216.163 308.712 211.418 312.352 206.393 316.205C198.45 322.3 189.447 329.205 178.5 329.205ZM124.355 292.01C129.921 292.01 135.496 292.356 140.706 294.048C147.436 296.233 153.37 300.785 159.109 305.185C165.89 310.386 172.296 315.298 178.501 315.298C184.706 315.298 191.111 310.386 197.892 305.185C203.63 300.784 209.564 296.233 216.295 294.047C223.317 291.767 231.002 291.932 238.437 292.093C246.806 292.274 254.709 292.444 259.395 289.041C264.161 285.579 266.436 277.981 268.845 269.937C270.962 262.866 273.151 255.553 277.455 249.661C281.702 243.848 287.956 239.569 294.003 235.43C300.994 230.646 307.598 226.126 309.46 220.424C311.204 215.087 308.625 207.729 305.896 199.938C303.413 192.851 300.846 185.523 300.846 177.999C300.846 170.475 303.413 163.147 305.896 156.061C308.625 148.271 311.204 140.911 309.46 135.574C307.598 129.873 300.994 125.353 294.003 120.569C287.955 116.43 281.702 112.151 277.455 106.338C273.152 100.446 270.963 93.1336 268.845 86.0623C266.436 78.0182 264.162 70.4199 259.396 66.9579C254.709 63.5536 246.803 63.724 238.438 63.9048C231.005 64.0654 223.317 64.2316 216.295 61.9503C209.565 59.7649 203.631 55.2141 197.892 50.8127C191.111 45.6118 184.705 40.6994 178.501 40.6994C172.296 40.6994 165.891 45.6118 159.109 50.8127C153.371 55.2141 147.437 59.7649 140.706 61.951C133.683 64.2309 125.995 64.0647 118.564 63.9041C110.192 63.724 102.291 63.5529 97.6046 66.9565C92.8395 70.4185 90.5643 78.0161 88.156 86.0602C86.0391 93.1315 83.8497 100.444 79.5454 106.336C75.2984 112.149 69.0446 116.429 62.9979 120.567C56.0064 125.352 49.4026 129.871 47.5402 135.573C45.7971 140.911 48.3756 148.268 51.1047 156.059C53.5876 163.146 56.155 170.474 56.155 177.998C56.155 185.522 53.5876 192.85 51.1047 199.936C48.3756 207.727 45.7971 215.086 47.5402 220.423C49.4026 226.125 56.0064 230.644 62.9979 235.429C69.0453 239.567 75.2991 243.846 79.5454 249.66C83.849 255.552 86.0384 262.864 88.156 269.935C90.5643 277.979 92.8388 285.577 97.6046 289.039C102.292 292.444 110.194 292.273 118.563 292.092C120.482 292.052 122.418 292.01 124.355 292.01Z" fill="black"/>
<path d="M189.296 282.978C185.445 282.978 182.323 279.865 182.323 276.024C182.323 272.184 185.445 269.071 189.296 269.071C224.033 269.071 254.751 246.967 265.733 214.069C266.949 210.426 270.897 208.455 274.551 209.667C278.205 210.881 280.181 214.817 278.965 218.461C266.083 257.05 230.048 282.978 189.296 282.978Z" fill="black"/>
<path d="M276.8 195.719H276.7C272.85 195.719 269.728 192.606 269.728 188.766C269.728 184.926 272.85 181.813 276.7 181.813H276.8C280.651 181.813 283.773 184.926 283.773 188.766C283.773 192.606 280.651 195.719 276.8 195.719Z" fill="black"/>
<path d="M92.7454 203.995C96.9248 201.265 106.826 195.502 113.242 191.807L102.056 180.653C98.9336 177.539 98.6471 172.594 101.371 169.128C102.267 167.988 103.241 166.889 104.295 165.839C116.092 154.075 133.99 152.121 147.826 159.957C146.288 157.25 144.381 154.699 142.09 152.392C127.941 138.137 104.881 138.093 90.6752 152.258C89.6224 153.308 88.6476 154.407 87.7516 155.547C85.0274 159.013 85.314 163.957 88.4363 167.072L99.6218 178.226C93.2063 181.922 83.3051 187.684 79.1257 190.414C76.504 192.126 75.9099 195.788 77.9815 197.806L91.0657 210.732C89.676 208.652 90.3859 205.536 92.7454 203.995Z" fill="white"/>
<path d="M103.694 214.913C106.433 210.747 112.21 200.872 115.916 194.475L127.102 205.629C130.225 208.744 135.185 209.027 138.662 206.309C140.016 205.251 141.312 204.082 142.537 202.804C153.797 191.061 155.521 173.503 147.825 159.958C133.989 152.123 116.091 154.076 104.294 165.84C103.241 166.89 102.267 167.988 101.371 169.129C98.6463 172.595 98.9329 177.539 102.055 180.653L113.241 191.808C106.825 195.503 96.9241 201.266 92.7447 203.996C90.3858 205.536 89.676 208.653 91.0657 210.733L96.2805 215.884C98.3123 217.91 101.978 217.523 103.694 214.913Z" fill="#D04E42"/>
<path d="M99.4873 224.128C96.4187 224.128 93.5062 222.949 91.3509 220.801L73.0742 202.745C70.6791 200.413 69.4798 197.071 69.8173 193.611C70.1715 189.98 72.2235 186.609 75.3061 184.596C78.0903 182.778 83.1274 179.774 88.2878 176.756L83.506 171.988C77.9014 166.399 77.3673 157.488 82.2649 151.258C83.3387 149.891 84.5101 148.574 85.7449 147.342C93.9406 139.17 104.812 134.695 116.426 134.714C128.016 134.743 138.891 139.284 147.046 147.5H147.046C154.983 155.496 159.408 166.13 159.51 177.447C159.612 188.766 155.373 199.478 147.578 207.609C146.139 209.109 144.586 210.513 142.963 211.782C136.716 216.665 127.777 216.135 122.172 210.545L117.391 205.777C114.354 210.942 111.335 215.975 109.526 218.726C107.539 221.748 104.331 223.694 100.724 224.064C100.309 224.107 99.8966 224.128 99.4873 224.128ZM101.172 210.928L101.188 210.944C101.182 210.939 101.177 210.933 101.172 210.928ZM84.9856 194.938L99.2077 208.988C101.501 205.307 105.2 199.073 109.879 190.996C110.963 189.124 112.858 187.862 115.007 187.58C117.148 187.299 119.313 188.028 120.847 189.557L132.032 200.711C132.655 201.333 133.655 201.386 134.36 200.835C135.463 199.974 136.518 199.019 137.498 197.997C148.348 186.68 148.186 168.415 137.135 157.282C131.609 151.716 124.242 148.639 116.391 148.62C116.365 148.62 116.34 148.62 116.314 148.62C108.491 148.62 101.14 151.655 95.6063 157.174C94.7661 158.013 93.9699 158.908 93.2398 159.836C92.6897 160.536 92.7441 161.533 93.3667 162.154L104.553 173.309C106.086 174.837 106.818 176.989 106.536 179.132C106.253 181.275 104.987 183.165 103.11 184.246C98.1583 187.098 89.8525 191.919 84.9856 194.938ZM82.8541 192.832L82.8819 192.86C82.8729 192.85 82.8638 192.841 82.8541 192.832Z" fill="black"/>
<path d="M195.457 73.393C191.022 71.9023 186.277 71.0825 181.337 71.0825C156.926 71.0825 137.137 90.8161 137.137 115.159H165.375C165.376 95.7417 177.972 79.2691 195.457 73.393Z" fill="white"/>
<path d="M195.457 73.393C177.972 79.2691 165.376 95.7417 165.376 115.159H225.538C225.538 95.7417 212.941 79.2691 195.457 73.393Z" fill="#FFD15C"/>
<path d="M225.538 122.112H137.138C133.287 122.112 130.165 118.999 130.165 115.159C130.165 87.0211 153.121 64.1294 181.338 64.1294C209.555 64.1294 232.511 87.0211 232.511 115.159C232.51 118.999 229.388 122.112 225.538 122.112ZM144.765 108.206H217.91C214.636 91.0484 199.481 78.0356 181.337 78.0356C163.193 78.0356 148.039 91.0484 144.765 108.206Z" fill="black"/>
<path d="M189.297 157.365V244.34C196.397 244.34 203.095 242.638 209.019 239.636V162.07C203.094 159.067 196.397 157.365 189.297 157.365Z" fill="white"/>
<path d="M232.906 200.853C232.906 183.916 223.19 169.25 209.018 162.07V239.636C223.19 232.455 232.906 217.79 232.906 200.853Z" fill="#FF5F5F"/>
<path d="M189.296 251.294C185.445 251.294 182.323 248.181 182.323 244.341V157.365C182.323 153.524 185.445 150.411 189.296 150.411C217.187 150.411 239.879 173.039 239.879 200.852C239.879 228.666 217.187 251.294 189.296 251.294ZM196.268 164.982V236.724C213.148 233.468 225.934 218.622 225.934 200.853C225.934 183.084 213.148 168.238 196.268 164.982Z" fill="black"/>
<path d="M261.754 148.858C261.754 141.418 266.094 134.99 272.387 131.952C269.91 130.756 267.13 130.085 264.194 130.085C253.796 130.085 245.368 138.49 245.368 148.858C245.368 159.227 253.796 167.632 264.194 167.632C267.131 167.632 269.91 166.961 272.387 165.765C266.094 162.726 261.754 156.298 261.754 148.858Z" fill="white"/>
<path d="M137.138 260.342C137.138 252.903 141.477 246.474 147.771 243.436C145.293 242.24 142.514 241.569 139.578 241.569C129.18 241.569 120.752 249.974 120.752 260.342C120.752 270.711 129.18 279.116 139.578 279.116C142.515 279.116 145.294 278.445 147.771 277.249C141.477 274.21 137.138 267.782 137.138 260.342Z" fill="white"/>
<path d="M283.019 148.858C283.019 141.418 278.68 134.99 272.386 131.952C266.093 134.99 261.753 141.418 261.753 148.858C261.753 156.298 266.093 162.726 272.386 165.765C278.68 162.726 283.019 156.298 283.019 148.858Z" fill="#D04E42"/>
<path d="M158.403 260.342C158.403 252.903 154.063 246.474 147.77 243.436C141.477 246.474 137.137 252.903 137.137 260.342C137.137 267.782 141.477 274.21 147.77 277.249C154.063 274.21 158.403 267.782 158.403 260.342Z" fill="#FFD15C"/>
<path d="M264.193 174.585C249.967 174.585 238.394 163.044 238.394 148.858C238.394 134.672 249.967 123.132 264.193 123.132C278.418 123.132 289.991 134.672 289.991 148.858C289.991 163.044 278.419 174.585 264.193 174.585ZM264.193 137.038C257.656 137.038 252.339 142.34 252.339 148.858C252.339 155.376 257.656 160.678 264.193 160.678C270.729 160.678 276.046 155.376 276.046 148.858C276.046 142.34 270.729 137.038 264.193 137.038Z" fill="black"/>
<path d="M139.577 286.069C125.352 286.069 113.778 274.528 113.778 260.342C113.778 246.157 125.352 234.616 139.577 234.616C153.803 234.616 165.376 246.157 165.376 260.342C165.376 274.528 153.803 286.069 139.577 286.069ZM139.577 248.522C133.041 248.522 127.724 253.825 127.724 260.342C127.724 266.86 133.041 272.163 139.577 272.163C146.113 272.163 151.431 266.86 151.431 260.342C151.431 253.825 146.113 248.522 139.577 248.522Z" fill="black"/>
</svg>
