<svg width="356" height="356" viewBox="0 0 356 356" fill="none" xmlns="http://www.w3.org/2000/svg">
<path d="M333.768 299.009V279.349H120.187V299.009C120.187 323.435 139.989 343.237 164.415 343.237H289.539C313.967 343.238 333.768 323.436 333.768 299.009Z" fill="#F2995E"/>
<path d="M245.443 110.069H203.729C154.948 110.069 115.403 149.613 115.403 198.394V202.054H333.768V198.394C333.768 149.614 294.224 110.069 245.443 110.069Z" fill="#FF8859"/>
<path d="M282.909 183.153C282.457 183.153 282.005 183.104 281.553 183.014C281.108 182.923 280.67 182.791 280.253 182.618C279.835 182.444 279.425 182.228 279.05 181.978C278.674 181.728 278.313 181.436 277.993 181.116C277.673 180.796 277.381 180.434 277.131 180.059C276.88 179.676 276.665 179.273 276.491 178.856C276.317 178.439 276.185 178.001 276.095 177.556C276.004 177.104 275.956 176.652 275.956 176.2C275.956 175.741 276.004 175.289 276.095 174.837C276.185 174.392 276.317 173.954 276.491 173.537C276.665 173.12 276.88 172.716 277.131 172.334C277.381 171.958 277.673 171.597 277.993 171.277C278.313 170.956 278.674 170.672 279.05 170.415C279.425 170.165 279.835 169.949 280.253 169.775C280.67 169.601 281.108 169.469 281.553 169.379C282.45 169.198 283.375 169.198 284.272 169.379C284.717 169.469 285.148 169.601 285.572 169.775C285.989 169.949 286.392 170.165 286.768 170.415C287.15 170.672 287.505 170.957 287.825 171.277C288.144 171.597 288.436 171.958 288.694 172.334C288.944 172.716 289.16 173.12 289.333 173.537C289.507 173.954 289.639 174.392 289.73 174.837C289.82 175.289 289.862 175.741 289.862 176.2C289.862 178.028 289.125 179.815 287.825 181.116C287.505 181.436 287.15 181.728 286.768 181.978C286.392 182.228 285.989 182.444 285.572 182.618C285.148 182.791 284.717 182.923 284.272 183.014C283.82 183.104 283.368 183.153 282.909 183.153Z" fill="black"/>
<path d="M76.1576 313.955C75.7056 313.955 75.2467 313.906 74.8017 313.816C74.3567 313.726 73.9187 313.594 73.5015 313.42C73.0774 313.246 72.6741 313.03 72.2986 312.78C71.9162 312.53 71.5616 312.238 71.2417 311.918C70.9219 311.597 70.6299 311.236 70.3795 310.861C70.1292 310.479 69.9137 310.075 69.7399 309.658C69.566 309.241 69.4339 308.803 69.3435 308.358C69.2531 307.906 69.2045 307.454 69.2045 307.002C69.2045 305.166 69.9485 303.372 71.2417 302.079C71.5616 301.759 71.9162 301.474 72.2986 301.217C72.6741 300.967 73.0774 300.751 73.5015 300.577C73.9187 300.403 74.3567 300.271 74.8017 300.181C75.698 300 76.6165 300 77.5135 300.181C77.9585 300.271 78.3965 300.403 78.8137 300.577C79.2378 300.751 79.6411 300.967 80.0166 301.217C80.399 301.474 80.7536 301.759 81.0735 302.079C82.3667 303.372 83.1107 305.166 83.1107 307.002C83.1107 307.454 83.062 307.906 82.9717 308.358C82.8882 308.803 82.7492 309.241 82.5753 309.658C82.4015 310.075 82.1929 310.479 81.9426 310.861C81.6853 311.236 81.3933 311.598 81.0735 311.918C80.7536 312.238 80.399 312.53 80.0166 312.78C79.6411 313.03 79.2378 313.246 78.8137 313.42C78.3965 313.594 77.9585 313.726 77.5135 313.816C77.0685 313.906 76.6095 313.955 76.1576 313.955Z" fill="black"/>
<path d="M333.536 202.055H313.902V230.814C313.902 244.139 303.099 254.942 289.774 254.942C276.448 254.942 265.646 244.14 265.646 230.814V249.147C271.44 254.538 278.118 259.039 289.27 259.039C311.003 259.039 320.75 236.261 336.911 232.702C344.005 231.139 349.047 224.83 349.047 217.566C349.047 208.999 342.102 202.055 333.536 202.055Z" fill="#1BCF92"/>
<path d="M193.261 254.942C179.935 254.942 169.133 244.14 169.133 230.814V202.055H97.7915C96.4649 204.941 95.7195 208.149 95.7195 211.533C95.7195 221.278 101.915 229.844 110.941 232.976C114.182 231.783 117.903 231.072 122.33 231.072C150.13 231.072 150.13 259.039 177.933 259.039H178.067C184.789 259.039 189.886 257.405 194.143 254.926C193.85 254.936 193.556 254.942 193.261 254.942Z" fill="#1BCF92"/>
<path d="M217.389 255.221V235.308C217.23 235.402 217.072 235.497 216.915 235.594C214.753 246.351 205.437 254.52 194.142 254.926C189.885 257.405 184.788 259.039 178.067 259.039H177.933C150.129 259.039 150.129 231.072 122.33 231.072C113.421 231.072 107.369 233.946 102.341 237.848C108.561 261.724 130.263 279.349 156.087 279.349H241.517C228.192 279.349 217.389 268.547 217.389 255.221Z" fill="#D04E42"/>
<path d="M334.172 233.502C319.585 238.815 309.748 259.039 289.269 259.039C278.117 259.039 271.439 254.537 265.645 249.146V255.221C265.645 268.546 254.842 279.349 241.517 279.349H322.523C335.999 279.349 346.924 268.424 346.924 254.947C346.925 245.691 341.769 237.637 334.172 233.502Z" fill="#D04E42"/>
<path d="M199.379 230.814V202.055H169.133V230.814C169.133 244.14 179.935 254.942 193.261 254.942C198.988 254.942 204.246 252.943 208.384 249.609C202.894 245.186 199.379 238.412 199.379 230.814Z" fill="white"/>
<path d="M208.384 249.609C210.994 251.712 214.049 253.284 217.389 254.158V230.815C217.389 238.412 213.873 245.186 208.384 249.609Z" fill="#FFD15C"/>
<path d="M199.379 202.055V230.814C199.379 238.412 202.894 245.186 208.384 249.609C213.873 245.186 217.389 238.412 217.389 230.814V254.157V255.221C217.389 268.547 228.191 279.349 241.517 279.349C247.244 279.349 252.502 277.35 256.64 274.016C262.129 269.594 265.645 262.82 265.645 255.221V230.814C265.645 244.14 276.447 254.942 289.773 254.942C291.887 254.942 293.937 254.668 295.891 254.158C299.231 253.285 302.286 251.712 304.896 249.609C310.385 245.186 313.901 238.412 313.901 230.814V202.055H199.379Z" fill="#FFD15C"/>
<path d="M240.653 48.9368L178 12.7639V85.1097L240.653 48.9368Z" fill="#279FC9"/>
<path d="M356 217.566C356 207.682 349.584 199.269 340.698 196.273C339.565 144.712 297.27 103.116 245.443 103.116H184.953V89.1245L244.13 54.9582C246.281 53.7164 247.606 51.4212 247.606 48.9368C247.606 46.4525 246.281 44.1572 244.13 42.9154L181.477 6.74247C179.325 5.50064 176.675 5.50064 174.523 6.74247C172.372 7.9843 171.047 10.2795 171.047 12.7639V103.116H110.557C58.7289 103.116 16.4344 144.711 15.3017 196.272C6.41634 199.269 0 207.682 0 217.566C0 224.722 3.46335 231.296 8.9146 235.456C4.58767 240.909 2.12209 247.745 2.12209 254.948C2.12209 265.457 7.31955 274.775 15.2781 280.467V299.008C15.2781 327.229 38.238 350.189 66.4594 350.189H289.54C317.761 350.189 340.721 327.229 340.721 299.008V280.467C348.68 274.775 353.877 265.457 353.877 254.948C353.877 247.745 351.412 240.909 347.085 235.456C352.537 231.296 356 224.721 356 217.566ZM184.953 24.8074L226.747 48.9375L184.953 73.0669V24.8074ZM110.557 117.022H245.443C289.208 117.022 325.014 151.755 326.75 195.102H29.2504C29.4131 191.035 29.8762 187.043 30.6167 183.15H254.814C258.654 183.15 261.767 180.037 261.767 176.196C261.767 172.356 258.654 169.243 254.814 169.243H34.5835C46.3308 138.732 75.9566 117.022 110.557 117.022ZM322.523 272.396H267.41C269.467 269.306 270.986 265.827 271.831 262.096C276.486 264.417 282.136 265.992 289.269 265.992C304.333 265.992 314.603 256.982 322.855 249.743C326.539 246.512 330.063 243.42 333.566 241.436C337.578 244.718 339.971 249.655 339.971 254.948C339.972 264.569 332.144 272.396 322.523 272.396ZM306.948 230.814C306.948 240.284 299.244 247.989 289.774 247.989C280.303 247.989 272.599 240.284 272.599 230.814C272.599 226.974 269.486 223.861 265.646 223.861C261.805 223.861 258.692 226.974 258.692 230.814V255.221C258.692 264.692 250.988 272.396 241.518 272.396C232.047 272.396 224.343 264.692 224.343 255.221V230.814C224.343 226.974 221.23 223.861 217.389 223.861C213.549 223.861 210.436 226.974 210.436 230.814C210.436 240.041 203.123 247.591 193.989 247.973C193.914 247.975 193.84 247.978 193.766 247.981C193.598 247.986 193.43 247.989 193.261 247.989C183.791 247.989 176.087 240.284 176.087 230.814V209.008H306.949V230.814H306.948ZM16.0283 254.948C16.0283 249.655 18.4209 244.718 22.4336 241.436C25.9365 243.42 29.4604 246.512 33.1442 249.743C41.3968 256.983 51.6673 265.992 66.7298 265.992C83.5216 265.992 92.3597 257.101 99.461 249.957C106.088 243.29 111.322 238.024 122.33 238.024C133.337 238.024 138.57 243.29 145.197 249.956C152.299 257.1 161.137 265.992 177.933 265.992H178.067C184.772 265.992 190.703 264.606 196.141 261.762C201.404 261.276 206.292 259.472 210.469 256.685C210.739 262.474 212.599 267.854 215.623 272.396H33.4765C23.8562 272.396 16.0283 264.569 16.0283 254.948ZM22.4642 209.008H162.18V230.814C162.18 238.416 164.924 245.39 169.473 250.797C163.695 248.839 159.722 244.842 155.06 240.153C147.959 233.009 139.122 224.119 122.331 224.119C105.538 224.119 96.6999 233.01 89.5987 240.154C82.9716 246.821 77.738 252.086 66.7305 252.086C56.903 252.086 49.8171 245.871 42.3153 239.29C36.8279 234.477 31.1549 229.499 24.2073 226.969C23.6107 226.751 22.9933 226.619 22.3724 226.57C21.8224 226.276 21.2237 226.052 20.5854 225.911C16.7153 225.059 13.9062 221.549 13.9062 217.566C13.9062 212.847 17.7451 209.008 22.4642 209.008ZM326.815 286.303V299.009C326.815 299.356 326.81 299.701 326.8 300.045H104.254C100.414 300.045 97.3013 303.158 97.3013 306.999C97.3013 310.839 100.414 313.952 104.254 313.952H323.688C317.918 327.088 304.783 336.284 289.54 336.284H66.4594C45.9059 336.284 29.1844 319.562 29.1844 299.009V286.303H326.815ZM335.415 225.911C334.776 226.052 334.176 226.277 333.626 226.571C333.006 226.62 332.389 226.752 331.793 226.969C327.753 228.441 324.144 230.74 320.751 233.352C320.819 232.515 320.854 231.668 320.854 230.814V209.008H333.535C338.254 209.008 342.093 212.847 342.093 217.566C342.094 221.549 339.285 225.059 335.415 225.911Z" fill="black"/>
</svg>
